<svg width="21" height="24" viewBox="0 0 21 24" fill="none" xmlns="http://www.w3.org/2000/svg">
<path d="M19.7807 18.4153C19.4328 19.2189 19.0211 19.9585 18.5441 20.6386C17.8939 21.5656 17.3615 22.2073 16.9512 22.5637C16.3152 23.1486 15.6337 23.4482 14.904 23.4652C14.3801 23.4652 13.7483 23.3161 13.0129 23.0137C12.2751 22.7128 11.597 22.5637 10.9771 22.5637C10.3268 22.5637 9.62947 22.7128 8.88355 23.0137C8.1365 23.3161 7.53469 23.4737 7.07456 23.4893C6.37478 23.5192 5.67728 23.2111 4.98105 22.5637C4.53669 22.1761 3.98087 21.5117 3.31503 20.5704C2.60063 19.5653 2.01329 18.3997 1.55317 17.0708C1.06038 15.6355 0.813354 14.2456 0.813354 12.9C0.813354 11.3586 1.14642 10.0292 1.81354 8.91518C2.33784 8.02034 3.03534 7.31446 3.90832 6.79626C4.7813 6.27807 5.72456 6.014 6.74036 5.99711C7.29618 5.99711 8.02506 6.16904 8.93083 6.50693C9.83405 6.84595 10.414 7.01788 10.6683 7.01788C10.8584 7.01788 11.5026 6.81685 12.5948 6.41607C13.6277 6.04439 14.4994 5.89049 15.2135 5.95111C17.1485 6.10728 18.6023 6.87009 19.5691 8.24437C17.8385 9.29296 16.9824 10.7617 16.9995 12.6457C17.0151 14.1133 17.5475 15.3345 18.5938 16.3042C19.068 16.7542 19.5975 17.1021 20.1867 17.3491C20.0589 17.7196 19.9241 18.0746 19.7807 18.4153ZM15.3427 0.951464C15.3427 2.10173 14.9224 3.17572 14.0848 4.1698C13.074 5.35157 11.8513 6.03445 10.5254 5.92669C10.5086 5.7887 10.4988 5.64346 10.4988 5.49084C10.4988 4.38659 10.9795 3.20483 11.8331 2.23857C12.2593 1.74934 12.8014 1.34255 13.4587 1.01805C14.1146 0.698386 14.735 0.521606 15.3185 0.491333C15.3356 0.645105 15.3427 0.798887 15.3427 0.951449V0.951464Z" fill="white"/>
</svg>
