<svg width="45" height="46" viewBox="0 0 45 46" fill="none" xmlns="http://www.w3.org/2000/svg">
<circle cx="22.5" cy="22.7413" r="22" stroke="#DDDCE2"/>
<path d="M26.5707 31.4644H18.4292C17.2176 31.4644 16.2 30.5921 16.2 29.5259V27.5875H28.7999V29.5259C28.7999 30.5921 27.7823 31.4644 26.5707 31.4644ZM22.4999 28.5567C21.9669 28.5567 21.5307 28.9929 21.5307 29.5259C21.5307 30.059 21.9669 30.4952 22.4999 30.4952C23.033 30.4952 23.4692 30.059 23.4692 29.5259C23.4692 28.9929 23.033 28.5567 22.4999 28.5567ZM16.2 15.9567C16.2 14.8906 17.2176 14.0182 18.4292 14.0182H26.5707C27.7823 14.0182 28.7999 14.8906 28.7999 15.9567V26.6183H16.2V15.9567Z" fill="#979FA8"/>
</svg>
