<svg width="20" height="20" viewBox="0 0 20 20" fill="none" xmlns="http://www.w3.org/2000/svg">
<path d="M13.8769 18.3077H6.12308C4.96923 18.3077 4 17.4769 4 16.4616V14.6154H16V16.4616C16 17.4769 15.0308 18.3077 13.8769 18.3077ZM10 15.5385C9.49231 15.5385 9.07692 15.9539 9.07692 16.4616C9.07692 16.9692 9.49231 17.3846 10 17.3846C10.5077 17.3846 10.9231 16.9692 10.9231 16.4616C10.9231 15.9539 10.5077 15.5385 10 15.5385ZM4 3.53848C4 2.52309 4.96923 1.69232 6.12308 1.69232H13.8769C15.0308 1.69232 16 2.52309 16 3.53848V13.6923H4V3.53848Z" fill="#5467F0"/>
</svg>
